<?xml version="1.0" standalone="no"?>
<svg xmlns="http://www.w3.org/2000/svg" viewBox="0 0 141.352 52" width="141.352" height="52"><rect fill="none" stroke="#ff8f54" stroke-width="3" width="138.352" height="49" x="1.5" y="1.5"></rect><g fill="#2880a9" color="#2880a9" transform="translate(12, 12) scale(1.1666667)"><svg width="24.0" height="24.0" x="0.0" y="0.0" viewBox="0 0 24 24"><g><g><path d="M7.5,23.5c-0.063,0-0.127-0.012-0.189-0.037c-0.255-0.104-0.378-0.396-0.273-0.652l9-22    c0.105-0.255,0.399-0.377,0.652-0.273c0.255,0.104,0.378,0.396,0.273,0.652l-9,22C7.884,23.383,7.697,23.5,7.5,23.5z"></path></g><g><path d="M17.5,19.5c-0.115,0-0.231-0.04-0.325-0.121c-0.21-0.18-0.234-0.495-0.054-0.705L22.841,12l-5.721-6.675    c-0.18-0.209-0.156-0.525,0.054-0.705c0.21-0.18,0.525-0.156,0.705,0.054l6,7c0.161,0.187,0.161,0.463,0,0.65l-6,7    C17.781,19.441,17.641,19.5,17.5,19.5z"></path></g><g><path d="M6.5,19.5c-0.141,0-0.281-0.059-0.379-0.175l-6-7c-0.161-0.187-0.161-0.463,0-0.65l6-7c0.18-0.21,0.496-0.234,0.705-0.054    C7.035,4.8,7.06,5.116,6.879,5.325L1.159,12l5.721,6.675c0.18,0.209,0.156,0.525-0.054,0.705C6.731,19.46,6.615,19.5,6.5,19.5z"></path></g></g></svg></g><path fill="#2880a9" fill-rule="nonzero" d="M2.57 23.18L0 23.18L0 4.75L2.57 4.75L2.57 5.86Q3.02 5.33 3.67 4.94Q4.32 4.56 5.21 4.56L5.21 4.56Q6.29 4.56 6.92 5.12Q7.56 5.69 7.87 6.54Q8.18 7.39 8.28 8.27Q8.38 9.14 8.38 9.77L8.38 9.77L8.38 13.13Q8.38 14.59 8.09 15.90Q7.80 17.21 7.04 18.01Q6.29 18.82 4.92 18.82L4.92 18.82Q4.18 18.82 3.60 18.44Q3.02 18.07 2.57 17.59L2.57 17.59L2.57 23.18ZM4.42 16.80L4.42 16.80Q5.09 16.80 5.38 16.31Q5.66 15.82 5.74 14.98Q5.81 14.14 5.81 13.13L5.81 13.13L5.81 9.77Q5.81 8.90 5.71 8.17Q5.62 7.44 5.30 7.01Q4.99 6.58 4.32 6.58L4.32 6.58Q3.82 6.58 3.36 6.79Q2.90 7.01 2.57 7.30L2.57 7.30L2.57 16.18Q2.93 16.44 3.38 16.62Q3.84 16.80 4.42 16.80ZM14.40 18.82L14.40 18.82Q13.32 18.82 12.66 18.41Q12.00 18 11.70 17.26Q11.40 16.51 11.40 15.50L11.40 15.50L11.40 6.46L9.94 6.46L9.94 4.75L11.40 4.75L11.40 0.70L13.97 0.70L13.97 4.75L16.20 4.75L16.20 6.46L13.97 6.46L13.97 15.34Q13.97 16.15 14.23 16.50Q14.50 16.85 15.24 16.85L15.24 16.85Q15.43 16.85 15.68 16.82Q15.94 16.80 16.18 16.78L16.18 16.78L16.18 18.67Q15.70 18.74 15.29 18.78Q14.88 18.82 14.40 18.82ZM21.89 18.82L21.89 18.82Q20.18 18.82 19.31 18.13Q18.43 17.45 18.13 16.20Q17.83 14.95 17.83 13.30L17.83 13.30L17.83 10.10Q17.83 8.35 18.14 7.12Q18.46 5.88 19.33 5.22Q20.21 4.56 21.89 4.56L21.89 4.56Q23.40 4.56 24.23 5.05Q25.06 5.54 25.37 6.52Q25.68 7.49 25.68 8.93L25.68 8.93L25.68 9.74L23.35 9.74L23.35 8.90Q23.35 7.99 23.23 7.46Q23.11 6.94 22.80 6.70Q22.49 6.46 21.91 6.46L21.91 6.46Q21.29 6.46 20.95 6.74Q20.62 7.03 20.51 7.72Q20.40 8.40 20.40 9.58L20.40 9.58L20.40 13.94Q20.40 15.72 20.74 16.32Q21.07 16.92 21.94 16.92L21.94 16.92Q22.58 16.92 22.88 16.62Q23.18 16.32 23.27 15.77Q23.35 15.22 23.35 14.52L23.35 14.52L23.35 13.39L25.68 13.39L25.68 14.35Q25.68 15.74 25.36 16.75Q25.03 17.76 24.20 18.29Q23.38 18.82 21.89 18.82ZM30.70 8.66L28.10 8.66L28.10 5.93L30.70 5.93L30.70 8.66ZM30.70 16.32L28.10 16.32L28.10 13.58L30.70 13.58L30.70 16.32ZM35.42 8.66L32.83 8.66L32.83 5.93L35.42 5.93L35.42 8.66ZM35.42 16.32L32.83 16.32L32.83 13.58L35.42 13.58L35.42 16.32ZM39.98 23.18L37.42 23.18L37.42 4.75L39.98 4.75L39.98 5.86Q40.44 5.33 41.09 4.94Q41.74 4.56 42.62 4.56L42.62 4.56Q43.70 4.56 44.34 5.12Q44.98 5.69 45.29 6.54Q45.60 7.39 45.70 8.27Q45.79 9.14 45.79 9.77L45.79 9.77L45.79 13.13Q45.79 14.59 45.50 15.90Q45.22 17.21 44.46 18.01Q43.70 18.82 42.34 18.82L42.34 18.82Q41.59 18.82 41.02 18.44Q40.44 18.07 39.98 17.59L39.98 17.59L39.98 23.18ZM41.83 16.80L41.83 16.80Q42.50 16.80 42.79 16.31Q43.08 15.82 43.15 14.98Q43.22 14.14 43.22 13.13L43.22 13.13L43.22 9.77Q43.22 8.90 43.13 8.17Q43.03 7.44 42.72 7.01Q42.41 6.58 41.74 6.58L41.74 6.58Q41.23 6.58 40.78 6.79Q40.32 7.01 39.98 7.30L39.98 7.30L39.98 16.18Q40.34 16.44 40.80 16.62Q41.26 16.80 41.83 16.80ZM50.76 18.62L48.19 18.62L48.19 4.75L50.76 4.75L50.76 6.72Q51.53 5.45 52.30 5.02Q53.06 4.58 53.83 4.58L53.83 4.58Q53.93 4.58 54.01 4.58Q54.10 4.58 54.24 4.61L54.24 4.61L54.24 7.44Q53.95 7.32 53.58 7.24Q53.21 7.15 52.82 7.15L52.82 7.15Q52.22 7.15 51.73 7.43Q51.24 7.70 50.76 8.50L50.76 8.50L50.76 18.62ZM58.56 18.62L55.99 18.62L55.99 4.75L58.56 4.75L58.56 18.62ZM58.56 2.69L55.99 2.69L55.99 0L58.56 0L58.56 2.69ZM63.89 18.62L61.32 18.62L61.32 4.75L63.89 4.75L63.89 6.12Q64.58 5.47 65.42 5.02Q66.26 4.56 67.27 4.56L67.27 4.56Q68.11 4.56 68.56 4.99Q69.00 5.42 69.18 6.07Q69.36 6.72 69.36 7.39L69.36 7.39L69.36 18.62L66.79 18.62L66.79 8.14Q66.79 7.39 66.58 6.98Q66.36 6.58 65.69 6.58L65.69 6.58Q65.26 6.58 64.79 6.83Q64.32 7.08 63.89 7.44L63.89 7.44L63.89 18.62ZM75.55 18.82L75.55 18.82Q74.47 18.82 73.81 18.41Q73.15 18 72.85 17.26Q72.55 16.51 72.55 15.50L72.55 15.50L72.55 6.46L71.09 6.46L71.09 4.75L72.55 4.75L72.55 0.70L75.12 0.70L75.12 4.75L77.35 4.75L77.35 6.46L75.12 6.46L75.12 15.34Q75.12 16.15 75.38 16.50Q75.65 16.85 76.39 16.85L76.39 16.85Q76.58 16.85 76.84 16.82Q77.09 16.80 77.33 16.78L77.33 16.78L77.33 18.67Q76.85 18.74 76.44 18.78Q76.03 18.82 75.55 18.82Z" transform="translate(52 14.408000000000001)"></path></svg>